<REAPER_PROJECT 0.1 "7.15/win64" 1716170725
  <NOTES 0 2
  >
  RIPPLE 0
  GROUPOVERRIDE 0 0 0
  AUTOXFADE 1
  ENVATTACH 3
  POOLEDENVATTACH 0
  MIXERUIFLAGS 11 48
  ENVFADESZ10 40
  PEAKGAIN 1
  FEEDBACK 0
  PANLAW 1
  PROJOFFS 0 0 0
  MAXPROJLEN 0 0
  GRID 3199 8 1 8 1 0 0 0
  TIMEMODE 1 5 -1 30 0 0 -1
  VIDEO_CONFIG 0 0 256
  PANMODE 3
  PANLAWFLAGS 3
  CURSOR 0
  ZOOM 100 1400 0
  VZOOMEX 6 0
  USE_REC_CFG 0
  RECMODE 1
  SMPTESYNC 0 30 100 40 1000 300 0 0 1 0 0
  LOOP 0
  LOOPGRAN 0 4
  RECORD_PATH "Media" ""
  <RECORD_CFG
    ZXZhdxgAAQ==
  >
  <APPLYFX_CFG
  >
  RENDER_FILE ""
  RENDER_PATTERN ""
  RENDER_FMT 0 2 0
  RENDER_1X 0
  RENDER_RANGE 1 0 0 18 1000
  RENDER_RESAMPLE 3 0 1
  RENDER_ADDTOPROJ 0
  RENDER_STEMS 0
  RENDER_DITHER 0
  TIMELOCKMODE 1
  TEMPOENVLOCKMODE 1
  ITEMMIX 1
  DEFPITCHMODE 589824 0
  TAKELANE 1
  SAMPLERATE 44100 0 0
  <RENDER_CFG
    ZXZhdxgAAQ==
  >
  LOCK 1
  <METRONOME 6 2
    VOL 0.25 0.125
    FREQ 800 1600 1
    BEATLEN 4
    SAMPLES "" ""
    PATTERN 2863311530 2863311529
    MULT 1
  >
  GLOBAL_AUTO -1
  TEMPO 120 4 4
  PLAYRATE 1 0 0.25 4
  SELECTION 0 0
  SELECTION2 0 0
  MASTERAUTOMODE 0
  MASTERTRACKHEIGHT 0 0
  MASTERPEAKCOL 16576
  MASTERMUTESOLO 0
  MASTERTRACKVIEW 0 0.6667 0.5 0.5 0 0 0 0 0 0 0 0 0 0
  MASTERHWOUT 0 0 1 0 0 0 0 -1
  MASTER_NCH 2 2
  MASTER_VOLUME 1 0 -1 -1 1
  MASTER_PANMODE 3
  MASTER_PANLAWFLAGS 3
  MASTER_FX 1
  MASTER_SEL 0
  <MASTERPLAYSPEEDENV
    EGUID {D7BD6339-E695-4079-B0A6-D2B2DDB4EF79}
    ACT 0 -1
    VIS 0 1 1
    LANEHEIGHT 0 0
    ARM 0
    DEFSHAPE 0 -1 -1
  >
  <TEMPOENVEX
    EGUID {BB1E1ED2-4DF6-43DA-8ABA-D2DAD3C81F3C}
    ACT 1 -1
    VIS 1 0 1
    LANEHEIGHT 0 0
    ARM 0
    DEFSHAPE 1 -1 -1
    PT 0.000000000000 170.0000850000 1 524294 0 1
    PT 13.764699000000 170.0000850000 1
    PT 149.294043000000 170.0000850000 1
    PT 149.823454500000 159.3748256838 1
    PT 150.388161000000 148.7501270574 1
    PT 150.993202500000 138.1250446029 1
    PT 151.644786000000 127.5000637500 1
    PT 151.997727000000 119.5311986389 1
    PT 152.374197750000 111.5625261475 1
    PT 152.777559000000 103.5936642115 1
  >
  <PROJBAY
  >
  <TRACK {5FEC50E5-EFD2-4C53-8913-B7DD934024E8}
    NAME Tuba
    PEAKCOL 16576
    BEAT -1
    AUTOMODE 0
    PANLAWFLAGS 3
    VOLPAN 1 0 -1 -1 1
    MUTESOLO 0 0 0
    IPHASE 0
    PLAYOFFS 0 1
    ISBUS 0 0
    BUSCOMP 0 0 0 0 0
    SHOWINMIX 1 0.6667 0.5 1 0.5 0 0 0
    FIXEDLANES 9 0 0 0
    SEL 0
    REC 0 0 1 0 0 0 0 0
    VU 2
    TRACKHEIGHT 0 0 0 0 0 0 0
    INQ 0 0 0 0.5 100 0 0 100
    NCHAN 2
    FX 1
    TRACKID {5FEC50E5-EFD2-4C53-8913-B7DD934024E8}
    PERF 0
    MIDIOUT -1
    MAINSEND 1 0
    <ITEM
      POSITION 0
      SNAPOFFS 0
      LENGTH 153.2119485
      LOOP 1
      ALLTAKES 0
      FADEIN 1 0 0 1 0 0 0
      FADEOUT 1 0 0 1 0 0 0
      MUTE 0 0
      SEL 1
      IGUID {0C3360F3-01F0-455F-B72F-820C1B3CBC5E}
      IID 1
      NAME "Tuba - Work in the Atlantis.mid"
      VOLPAN 1 0 1 -1
      SOFFS 0 0
      PLAYRATE 1 1 0 -1 0 0.0025
      CHANMODE 0
      GUID {C290B83C-E4B1-4ADF-85E2-6A2D1D2B6282}
      <SOURCE MIDI
        HASDATA 1 480 QN
        CCINTERP 32
        POOLEDEVTS {461F89DD-1CE7-4474-B1DC-B39C1988C24E}
        <X 0 0 0 0 3 Tuba
          /wNUdWJh
        >
        <X 0 0
          /yEBAA==
        >
        E 0 c0 3a 00
        E 0 b0 64 00
        E 0 b0 65 00
        E 0 b0 06 0c
        E 0 b0 64 7f
        E 0 b0 65 7f
        E 0 b0 07 64
        E 0 b0 0a 40
        E 0 b0 5b 00
        E 0 b0 5d 00
        E 0 b0 02 31
        E 0 90 2e 31
        E 0 b0 79 00
        E 1439 90 2e 00
        E 1 b0 02 31
        E 0 90 2b 31
        E 1439 90 2b 00
        E 1 b0 02 31
        E 0 90 27 31
        E 1439 90 27 00
        E 1 b0 02 31
        E 0 90 29 31
        E 1439 90 29 00
        E 1 b0 02 31
        E 0 90 2e 31
        E 719 90 2e 00
        E 1 b0 02 31
        E 0 90 2e 31
        E 239 90 2e 00
        E 1 b0 02 31
        E 0 90 32 31
        E 239 90 32 00
        E 1 b0 02 31
        E 0 90 35 31
        E 239 90 35 00
        E 1 b0 02 31
        E 0 90 2b 31
        E 719 90 2b 00
        E 1 b0 02 31
        E 0 90 2b 31
        E 239 90 2b 00
        E 1 b0 02 31
        E 0 90 2e 31
        E 239 90 2e 00
        E 1 b0 02 31
        E 0 90 32 31
        E 239 90 32 00
        E 1 b0 02 31
        E 0 90 27 31
        E 719 90 27 00
        E 1 b0 02 31
        E 0 90 27 31
        E 719 90 27 00
        E 1 b0 02 31
        E 0 90 29 31
        E 719 90 29 00
        E 1 b0 02 31
        E 0 90 29 31
        E 239 90 29 00
        E 1 b0 02 31
        E 0 90 2b 31
        E 239 90 2b 00
        E 1 b0 02 31
        E 0 90 2d 31
        E 239 90 2d 00
        E 1 b0 02 31
        E 0 90 2e 31
        E 719 90 2e 00
        E 1 b0 02 31
        E 0 90 2e 31
        E 719 90 2e 00
        E 1 b0 02 31
        E 0 90 2b 31
        E 719 90 2b 00
        E 1 b0 02 31
        E 0 90 2b 31
        E 719 90 2b 00
        E 1 b0 02 31
        E 0 90 27 31
        E 719 90 27 00
        E 1 b0 02 31
        E 0 90 27 31
        E 719 90 27 00
        E 1 b0 02 31
        E 0 90 29 31
        E 719 90 29 00
        E 1 b0 02 31
        E 0 90 29 31
        E 719 90 29 00
        E 1 b0 02 31
        E 0 90 2d 31
        E 719 90 2d 00
        E 1 b0 02 31
        E 0 90 2d 31
        E 719 90 2d 00
        <X 1 0
          /1kC/gA=
        >
        E 0 b0 02 31
        E 0 90 2e 31
        E 1439 90 2e 00
        E 1 b0 02 31
        E 0 90 2b 31
        E 1439 90 2b 00
        E 1 b0 02 31
        E 0 90 27 31
        E 1439 90 27 00
        E 1 b0 02 31
        E 0 90 29 31
        E 1439 90 29 00
        E 1 b0 02 31
        E 0 90 2e 31
        E 719 90 2e 00
        E 1 b0 02 31
        E 0 90 2e 31
        E 239 90 2e 00
        E 1 b0 02 31
        E 0 90 32 31
        E 239 90 32 00
        E 1 b0 02 31
        E 0 90 35 31
        E 239 90 35 00
        E 1 b0 02 31
        E 0 90 2b 31
        E 719 90 2b 00
        E 1 b0 02 31
        E 0 90 2b 31
        E 239 90 2b 00
        E 1 b0 02 31
        E 0 90 2e 31
        E 239 90 2e 00
        E 1 b0 02 31
        E 0 90 32 31
        E 239 90 32 00
        E 1 b0 02 31
        E 0 90 27 31
        E 719 90 27 00
        E 1 b0 02 31
        E 0 90 27 31
        E 719 90 27 00
        E 1 b0 02 31
        E 0 90 29 31
        E 719 90 29 00
        E 1 b0 02 31
        E 0 90 29 31
        E 239 90 29 00
        E 1 b0 02 31
        E 0 90 2b 31
        E 239 90 2b 00
        E 1 b0 02 31
        E 0 90 2d 31
        E 239 90 2d 00
        E 1 b0 02 31
        E 0 90 2e 31
        E 719 90 2e 00
        E 1 b0 02 31
        E 0 90 2e 31
        E 719 90 2e 00
        E 1 b0 02 31
        E 0 90 2b 31
        E 719 90 2b 00
        E 1 b0 02 31
        E 0 90 2b 31
        E 719 90 2b 00
        E 1 b0 02 31
        E 0 90 27 31
        E 719 90 27 00
        E 1 b0 02 31
        E 0 90 27 31
        E 719 90 27 00
        E 1 b0 02 31
        E 0 90 29 31
        E 719 90 29 00
        E 1 b0 02 31
        E 0 90 29 31
        E 719 90 29 00
        E 1 b0 02 31
        E 0 90 2d 31
        E 719 90 2d 00
        E 1 b0 02 31
        E 0 90 2d 31
        E 719 90 2d 00
        E 1 b0 02 31
        E 0 90 2e 31
        E 1439 90 2e 00
        E 1 b0 02 31
        E 0 90 2b 31
        E 1439 90 2b 00
        E 1 b0 02 31
        E 0 90 27 31
        E 1439 90 27 00
        E 1 b0 02 31
        E 0 90 2b 31
        E 1439 90 2b 00
        E 1 b0 02 31
        E 0 90 2e 31
        E 719 90 2e 00
        E 1 b0 02 31
        E 0 90 32 31
        E 479 90 32 00
        E 1 b0 02 31
        E 0 90 35 31
        E 239 90 35 00
        E 1 b0 02 31
        E 0 90 2b 31
        E 719 90 2b 00
        E 1 b0 02 31
        E 0 90 2e 31
        E 479 90 2e 00
        E 1 b0 02 31
        E 0 90 32 31
        E 239 90 32 00
        E 1 b0 02 31
        E 0 90 27 31
        E 719 90 27 00
        E 1 b0 02 31
        E 0 90 2b 31
        E 479 90 2b 00
        E 1 b0 02 31
        E 0 90 2e 31
        E 239 90 2e 00
        E 1 b0 02 31
        E 0 90 29 31
        E 719 90 29 00
        E 1 b0 02 31
        E 0 90 2d 31
        E 479 90 2d 00
        E 1 b0 02 31
        E 0 90 30 31
        E 239 90 30 00
        E 1 b0 02 31
        E 0 90 2e 31
        E 719 90 2e 00
        E 1 b0 02 31
        E 0 90 32 31
        E 479 90 32 00
        E 1 b0 02 31
        E 0 90 35 31
        E 239 90 35 00
        E 1 b0 02 31
        E 0 90 2b 31
        E 719 90 2b 00
        E 1 b0 02 31
        E 0 90 2e 31
        E 479 90 2e 00
        E 1 b0 02 31
        E 0 90 32 31
        E 239 90 32 00
        E 1 b0 02 31
        E 0 90 27 31
        E 719 90 27 00
        E 1 b0 02 31
        E 0 90 2b 31
        E 479 90 2b 00
        E 1 b0 02 31
        E 0 90 2e 31
        E 239 90 2e 00
        E 1 b0 02 31
        E 0 90 29 31
        E 719 90 29 00
        E 1 b0 02 31
        E 0 90 2d 31
        E 479 90 2d 00
        E 1 b0 02 31
        E 0 90 30 31
        E 239 90 30 00
        E 1 b0 02 31
        E 0 90 2e 31
        E 1439 90 2e 00
        E 1 b0 02 31
        E 0 90 2b 31
        E 1439 90 2b 00
        E 1 b0 02 31
        E 0 90 27 31
        E 1439 90 27 00
        E 1 b0 02 31
        E 0 90 2b 31
        E 1439 90 2b 00
        E 1 b0 02 31
        E 0 90 2e 31
        E 1439 90 2e 00
        E 1 b0 02 31
        E 0 90 2e 31
        E 1439 90 2e 00
        E 1 b0 02 31
        E 0 90 2b 31
        E 1439 90 2b 00
        E 1 b0 02 31
        E 0 90 27 31
        E 1440 b0 02 31
        E 1439 90 27 00
        E 1 b0 02 31
        E 0 90 29 31
        E 1440 b0 02 31
        E 1439 90 29 00
        E 1 b0 02 31
        E 0 90 2b 31
        E 1440 b0 02 31
        E 1439 90 2b 00
        E 1 b0 02 31
        E 0 90 29 31
        E 1440 b0 02 31
        E 1439 90 29 00
        E 1 b0 02 31
        E 0 90 27 31
        E 719 90 27 00
        E 1 b0 02 31
        E 0 90 29 31
        E 719 90 29 00
        E 1 b0 02 31
        E 0 90 2b 31
        E 719 90 2b 00
        E 1 b0 02 31
        E 0 90 29 31
        E 719 90 29 00
        E 1 b0 02 31
        E 0 90 2e 31
        E 1439 90 2e 00
        E 1 b0 02 31
        E 0 90 2b 31
        E 1439 90 2b 00
        E 1 b0 02 31
        E 0 90 27 31
        E 1439 90 27 00
        E 1 b0 02 31
        E 0 90 29 31
        E 1439 90 29 00
        E 1 b0 02 31
        E 0 90 2e 31
        E 719 90 2e 00
        E 1 b0 02 31
        E 0 90 2e 31
        E 239 90 2e 00
        E 1 b0 02 31
        E 0 90 32 31
        E 239 90 32 00
        E 1 b0 02 31
        E 0 90 35 31
        E 239 90 35 00
        E 1 b0 02 31
        E 0 90 2b 31
        E 719 90 2b 00
        E 1 b0 02 31
        E 0 90 2b 31
        E 239 90 2b 00
        E 1 b0 02 31
        E 0 90 2e 31
        E 239 90 2e 00
        E 1 b0 02 31
        E 0 90 32 31
        E 239 90 32 00
        E 1 b0 02 31
        E 0 90 27 31
        E 719 90 27 00
        E 1 b0 02 31
        E 0 90 27 31
        E 719 90 27 00
        E 1 b0 02 31
        E 0 90 29 31
        E 719 90 29 00
        E 1 b0 02 31
        E 0 90 29 31
        E 239 90 29 00
        E 1 b0 02 31
        E 0 90 2b 31
        E 239 90 2b 00
        E 1 b0 02 31
        E 0 90 2d 31
        E 239 90 2d 00
        E 1 b0 02 31
        E 0 90 2e 31
        E 719 90 2e 00
        E 1 b0 02 31
        E 0 90 2e 31
        E 719 90 2e 00
        E 1 b0 02 31
        E 0 90 2b 31
        E 719 90 2b 00
        E 1 b0 02 31
        E 0 90 2b 31
        E 719 90 2b 00
        E 1 b0 02 31
        E 0 90 27 31
        E 719 90 27 00
        E 1 b0 02 31
        E 0 90 27 31
        E 719 90 27 00
        E 1 b0 02 31
        E 0 90 29 31
        E 719 90 29 00
        E 1 b0 02 31
        E 0 90 29 31
        E 719 90 29 00
        E 1 b0 02 31
        E 0 90 2d 31
        E 719 90 2d 00
        E 1 b0 02 31
        E 0 90 2d 31
        E 719 90 2d 00
        E 1 b0 02 31
        E 0 90 2e 31
        E 1439 90 2e 00
        E 1 b0 02 31
        E 0 90 2b 31
        E 1439 90 2b 00
        E 1 b0 02 31
        E 0 90 27 31
        E 1439 90 27 00
        E 1 b0 02 31
        E 0 90 2b 31
        E 719 90 2b 00
        E 1 b0 02 31
        E 0 90 27 31
        E 719 90 27 00
        E 1 b0 02 31
        E 0 90 2e 31
        E 1439 90 2e 00
        E 1 b0 02 31
        E 0 90 2b 31
        E 1439 90 2b 00
        E 1 b0 02 31
        E 0 90 27 31
        E 1439 90 27 00
        E 1 b0 02 31
        E 0 90 29 31
        E 1439 90 29 00
        E 1 b0 02 31
        E 0 90 2e 31
        E 719 90 2e 00
        E 1 b0 02 31
        E 0 90 2e 31
        E 239 90 2e 00
        E 1 b0 02 31
        E 0 90 32 31
        E 239 90 32 00
        E 1 b0 02 31
        E 0 90 35 31
        E 239 90 35 00
        E 1 b0 02 31
        E 0 90 2b 31
        E 719 90 2b 00
        E 1 b0 02 31
        E 0 90 2b 31
        E 239 90 2b 00
        E 1 b0 02 31
        E 0 90 2e 31
        E 239 90 2e 00
        E 1 b0 02 31
        E 0 90 32 31
        E 239 90 32 00
        E 1 b0 02 31
        E 0 90 27 31
        E 719 90 27 00
        E 1 b0 02 31
        E 0 90 27 31
        E 719 90 27 00
        E 1 b0 02 31
        E 0 90 29 31
        E 719 90 29 00
        E 1 b0 02 31
        E 0 90 29 31
        E 239 90 29 00
        E 1 b0 02 31
        E 0 90 2b 31
        E 239 90 2b 00
        E 1 b0 02 31
        E 0 90 2d 31
        E 239 90 2d 00
        E 1 b0 02 31
        E 0 90 2e 31
        E 719 90 2e 00
        E 1 b0 02 31
        E 0 90 2e 31
        E 719 90 2e 00
        E 1 b0 02 31
        E 0 90 2b 31
        E 719 90 2b 00
        E 1 b0 02 31
        E 0 90 2b 31
        E 719 90 2b 00
        E 1 b0 02 31
        E 0 90 27 31
        E 719 90 27 00
        E 1 b0 02 31
        E 0 90 27 31
        E 719 90 27 00
        E 1 b0 02 31
        E 0 90 29 31
        E 719 90 29 00
        E 1 b0 02 31
        E 0 90 29 31
        E 719 90 29 00
        E 1 b0 02 31
        E 0 90 2d 31
        E 719 90 2d 00
        E 1 b0 02 31
        E 0 90 2d 31
        E 719 90 2d 00
        E 1 b0 02 31
        E 0 90 2e 31
        E 1439 90 2e 00
        E 1 b0 02 31
        E 0 90 2b 31
        E 1439 90 2b 00
        E 1 b0 02 31
        E 0 90 27 31
        E 1439 90 27 00
        E 1 b0 02 31
        E 0 90 29 31
        E 1439 90 29 00
        E 1 b0 02 31
        E 0 90 2e 31
        E 719 90 2e 00
        E 1 b0 02 31
        E 0 90 2e 31
        E 239 90 2e 00
        E 1 b0 02 31
        E 0 90 32 31
        E 239 90 32 00
        E 1 b0 02 31
        E 0 90 35 31
        E 239 90 35 00
        E 1 b0 02 31
        E 0 90 2b 31
        E 719 90 2b 00
        E 1 b0 02 31
        E 0 90 2b 31
        E 239 90 2b 00
        E 1 b0 02 31
        E 0 90 2e 31
        E 239 90 2e 00
        E 1 b0 02 31
        E 0 90 32 31
        E 239 90 32 00
        E 1 b0 02 31
        E 0 90 27 31
        E 719 90 27 00
        E 1 b0 02 31
        E 0 90 27 31
        E 719 90 27 00
        E 1 b0 02 31
        E 0 90 29 31
        E 719 90 29 00
        E 1 b0 02 31
        E 0 90 29 31
        E 239 90 29 00
        E 1 b0 02 31
        E 0 90 2b 31
        E 239 90 2b 00
        E 1 b0 02 31
        E 0 90 2d 31
        E 239 90 2d 00
        E 1 b0 02 31
        E 0 90 2e 31
        E 719 90 2e 00
        E 1 b0 02 31
        E 0 90 2e 31
        E 719 90 2e 00
        E 1 b0 02 31
        E 0 90 2b 31
        E 719 90 2b 00
        E 1 b0 02 31
        E 0 90 2b 31
        E 719 90 2b 00
        E 1 b0 02 31
        E 0 90 27 31
        E 719 90 27 00
        E 1 b0 02 31
        E 0 90 27 31
        E 719 90 27 00
        E 1 b0 02 31
        E 0 90 29 31
        E 719 90 29 00
        E 1 b0 02 31
        E 0 90 29 31
        E 719 90 29 00
        E 1 b0 02 31
        E 0 90 2d 31
        E 719 90 2d 00
        E 1 b0 02 31
        E 0 90 2d 31
        E 719 90 2d 00
        E 1 b0 02 31
        E 0 90 2e 31
        E 1439 90 2e 00
        E 1 b0 02 31
        E 0 90 2b 31
        E 1439 90 2b 00
        E 1 b0 02 31
        E 0 90 27 31
        E 1439 90 27 00
        E 1 b0 02 31
        E 0 90 2b 31
        E 1439 90 2b 00
        E 1 b0 02 31
        E 0 90 2e 31
        E 719 90 2e 00
        E 1 b0 02 31
        E 0 90 32 31
        E 479 90 32 00
        E 1 b0 02 31
        E 0 90 35 31
        E 239 90 35 00
        E 1 b0 02 31
        E 0 90 2b 31
        E 719 90 2b 00
        E 1 b0 02 31
        E 0 90 2e 31
        E 479 90 2e 00
        E 1 b0 02 31
        E 0 90 32 31
        E 239 90 32 00
        E 1 b0 02 31
        E 0 90 27 31
        E 719 90 27 00
        E 1 b0 02 31
        E 0 90 2b 31
        E 479 90 2b 00
        E 1 b0 02 31
        E 0 90 2e 31
        E 239 90 2e 00
        E 1 b0 02 31
        E 0 90 29 31
        E 719 90 29 00
        E 1 b0 02 31
        E 0 90 2d 31
        E 479 90 2d 00
        E 1 b0 02 31
        E 0 90 30 31
        E 239 90 30 00
        E 1 b0 02 31
        E 0 90 2e 31
        E 719 90 2e 00
        E 1 b0 02 31
        E 0 90 32 31
        E 479 90 32 00
        E 1 b0 02 31
        E 0 90 35 31
        E 239 90 35 00
        E 1 b0 02 31
        E 0 90 2b 31
        E 719 90 2b 00
        E 1 b0 02 31
        E 0 90 2e 31
        E 479 90 2e 00
        E 1 b0 02 31
        E 0 90 32 31
        E 239 90 32 00
        E 1 b0 02 31
        E 0 90 27 31
        E 719 90 27 00
        E 1 b0 02 31
        E 0 90 2b 31
        E 479 90 2b 00
        E 1 b0 02 31
        E 0 90 2e 31
        E 239 90 2e 00
        E 1 b0 02 31
        E 0 90 29 31
        E 719 90 29 00
        E 1 b0 02 31
        E 0 90 2d 31
        E 479 90 2d 00
        E 1 b0 02 31
        E 0 90 30 31
        E 239 90 30 00
        E 1 b0 02 31
        E 0 90 2e 31
        E 1439 90 2e 00
        E 1 b0 02 31
        E 0 90 2b 31
        E 1439 90 2b 00
        E 1 b0 02 31
        E 0 90 27 31
        E 1439 90 27 00
        E 1 b0 02 31
        E 0 90 2b 31
        E 1439 90 2b 00
        E 1 b0 02 31
        E 0 90 2e 31
        E 1439 90 2e 00
        E 1 b0 02 31
        E 0 90 2e 31
        E 1439 90 2e 00
        E 1 b0 02 31
        E 0 90 2b 31
        E 1439 90 2b 00
        E 1 b0 02 31
        E 0 90 27 31
        E 1440 b0 02 31
        E 1439 90 27 00
        E 1 b0 02 31
        E 0 90 29 31
        E 1440 b0 02 31
        E 1439 90 29 00
        E 1 b0 02 31
        E 0 90 2b 31
        E 1440 b0 02 31
        E 1439 90 2b 00
        E 1 b0 02 31
        E 0 90 29 31
        E 1440 b0 02 31
        E 1439 90 29 00
        E 1 b0 02 31
        E 0 90 27 31
        E 719 90 27 00
        E 1 b0 02 31
        E 0 90 29 31
        E 719 90 29 00
        E 1 b0 02 31
        E 0 90 2b 31
        E 719 90 2b 00
        E 1 b0 02 31
        E 0 90 29 31
        E 719 90 29 00
        E 1 b0 02 31
        E 0 90 2e 31
        E 1439 90 2e 00
        E 1 b0 02 31
        E 0 90 2b 31
        E 1439 90 2b 00
        E 1 b0 02 31
        E 0 90 27 31
        E 1439 90 27 00
        E 1 b0 02 31
        E 0 90 29 31
        E 1439 90 29 00
        E 1 b0 02 31
        E 0 90 2e 31
        E 719 90 2e 00
        E 1 b0 02 31
        E 0 90 2e 31
        E 239 90 2e 00
        E 1 b0 02 31
        E 0 90 32 31
        E 239 90 32 00
        E 1 b0 02 31
        E 0 90 35 31
        E 239 90 35 00
        E 1 b0 02 31
        E 0 90 2b 31
        E 719 90 2b 00
        E 1 b0 02 31
        E 0 90 2b 31
        E 239 90 2b 00
        E 1 b0 02 31
        E 0 90 2e 31
        E 239 90 2e 00
        E 1 b0 02 31
        E 0 90 32 31
        E 239 90 32 00
        E 1 b0 02 31
        E 0 90 27 31
        E 719 90 27 00
        E 1 b0 02 31
        E 0 90 27 31
        E 719 90 27 00
        E 1 b0 02 31
        E 0 90 29 31
        E 719 90 29 00
        E 1 b0 02 31
        E 0 90 29 31
        E 239 90 29 00
        E 1 b0 02 31
        E 0 90 2b 31
        E 239 90 2b 00
        E 1 b0 02 31
        E 0 90 2d 31
        E 239 90 2d 00
        E 1 b0 02 31
        E 0 90 2e 31
        E 719 90 2e 00
        E 1 b0 02 31
        E 0 90 2e 31
        E 719 90 2e 00
        E 1 b0 02 31
        E 0 90 2b 31
        E 719 90 2b 00
        E 1 b0 02 31
        E 0 90 2b 31
        E 719 90 2b 00
        E 1 b0 02 31
        E 0 90 27 31
        E 719 90 27 00
        E 1 b0 02 31
        E 0 90 27 31
        E 719 90 27 00
        E 1 b0 02 31
        E 0 90 29 31
        E 719 90 29 00
        E 1 b0 02 31
        E 0 90 29 31
        E 719 90 29 00
        E 1 b0 02 31
        E 0 90 2d 31
        E 719 90 2d 00
        E 1 b0 02 31
        E 0 90 2d 31
        E 719 90 2d 00
        E 1 b0 02 31
        E 0 90 2e 31
        E 1439 90 2e 00
        E 1 b0 02 31
        E 0 90 2b 31
        E 1439 90 2b 00
        E 1 b0 02 31
        E 0 90 27 31
        E 1439 90 27 00
        E 1 b0 02 31
        E 0 90 2b 31
        E 719 90 2b 00
        E 1 b0 02 31
        E 0 90 27 31
        E 719 90 27 00
        E 1 b0 7b 00
        CCINTERP 32
        CHASE_CC_TAKEOFFS 1
        GUID {196C7D33-1883-48BD-A540-1FA871AAF578}
        IGNTEMPO 0 120 4 4
        SRCCOLOR 21
      >
    >
  >
  <TRACK {3D631E09-9B05-471F-93F6-2BE2487BD0AA}
    NAME "Saxofón mezzo-soprano"
    PEAKCOL 16576
    BEAT -1
    AUTOMODE 0
    PANLAWFLAGS 3
    VOLPAN 1 0 -1 -1 1
    MUTESOLO 0 0 0
    IPHASE 0
    PLAYOFFS 0 1
    ISBUS 0 0
    BUSCOMP 0 0 0 0 0
    SHOWINMIX 1 0.6667 0.5 1 0.5 0 0 0
    FIXEDLANES 9 0 0 0
    SEL 0
    REC 0 0 1 0 0 0 0 0
    VU 2
    TRACKHEIGHT 0 0 0 0 0 0 0
    INQ 0 0 0 0.5 100 0 0 100
    NCHAN 2
    FX 1
    TRACKID {3D631E09-9B05-471F-93F6-2BE2487BD0AA}
    PERF 0
    MIDIOUT -1
    MAINSEND 1 0
    <FXCHAIN
      WNDRECT 23 0 1636 1020
      SHOW 0
      LASTSEL 0
      DOCKED 0
    >
    <ITEM
      POSITION 0
      SNAPOFFS 0
      LENGTH 153.2119485
      LOOP 1
      ALLTAKES 0
      FADEIN 1 0 0 1 0 0 0
      FADEOUT 1 0 0 1 0 0 0
      MUTE 0 0
      SEL 1
      IGUID {FFF1CF1B-5F9C-496F-816E-F1781BA3123D}
      IID 2
      NAME "Saxofón mezzo-soprano - Work in the Atlantis.mid"
      VOLPAN 1 0 1 -1
      SOFFS 0 0
      PLAYRATE 1 1 0 -1 0 0.0025
      CHANMODE 0
      GUID {B47F4EF3-11DE-44B6-B5B5-3A99EB28BBD5}
      <SOURCE MIDI
        HASDATA 1 480 QN
        CCINTERP 32
        POOLEDEVTS {C252C46B-9A0E-4329-9C77-4ADF3BB4FD21}
        <X 0 0 0 0 3 "Saxofón mezzo-soprano"
          /wNTYXhvZsOzbiBtZXp6by1zb3ByYW5v
        >
        <X 0 0
          /1kC/gA=
        >
        <X 0 0
          /yEBAA==
        >
        E 0 c1 41 00
        E 0 b1 64 00
        E 0 b1 65 00
        E 0 b1 06 0c
        E 0 b1 64 7f
        E 0 b1 65 7f
        E 0 b1 07 64
        E 0 b1 0a 40
        E 0 b1 5b 00
        E 0 b1 5d 00
        E 0 b1 02 50
        E 0 91 46 50
        E 0 b1 79 00
        E 719 91 46 00
        E 1 b1 02 50
        E 0 91 3f 50
        E 479 91 3f 00
        E 1 b1 02 50
        E 0 91 41 50
        E 239 91 41 00
        E 1 b1 02 50
        E 0 91 46 50
        E 479 91 46 00
        E 1 b1 02 50
        E 0 91 4b 50
        E 239 91 4b 00
        E 1 b1 02 50
        E 0 91 4a 50
        E 239 91 4a 00
        E 241 b1 02 50
        E 0 91 4d 50
        E 240 b1 02 50
        E 719 91 4d 00
        E 1 b1 02 50
        E 0 91 4a 50
        E 239 91 4a 00
        E 1 b1 02 50
        E 0 91 48 50
        E 239 91 48 00
        E 241 b1 02 50
        E 0 91 46 50
        E 239 91 46 00
        E 1 b1 02 50
        E 0 91 45 50
        E 239 91 45 00
        E 1 b1 02 50
        E 0 91 46 50
        E 239 91 46 00
        E 1 b1 02 50
        E 0 91 4d 50
        E 239 91 4d 00
        E 1 b1 02 50
        E 0 91 46 50
        E 239 91 46 00
        E 241 b1 02 50
        E 0 91 4d 50
        E 239 91 4d 00
        E 1 b1 02 50
        E 0 91 4d 50
        E 239 91 4d 00
        E 1 b1 02 50
        E 0 91 4d 50
        E 239 91 4d 00
        E 1 b1 02 50
        E 0 91 4d 50
        E 479 91 4d 00
        E 1 b1 02 50
        E 0 91 4a 50
        E 239 91 4a 00
        E 1 b1 02 50
        E 0 91 4d 50
        E 479 91 4d 00
        E 1 b1 02 50
        E 0 91 4b 50
        E 239 91 4b 00
        E 1 b1 02 50
        E 0 91 4a 50
        E 239 91 4a 00
        E 241 b1 02 50
        E 0 91 48 50
        E 239 91 48 00
        E 1 b1 02 50
        E 0 91 46 50
        E 719 91 46 00
        E 1 b1 02 50
        E 0 91 46 50
        E 719 91 46 00
        E 1 b1 02 50
        E 0 91 46 50
        E 239 91 46 00
        E 1 b1 02 50
        E 0 91 48 50
        E 239 91 48 00
        E 1 b1 02 50
        E 0 91 46 50
        E 239 91 46 00
        E 1 b1 02 50
        E 0 91 4d 50
        E 239 91 4d 00
        E 1 b1 02 50
        E 0 91 46 50
        E 239 91 46 00
        E 241 b1 02 50
        E 0 91 4d 50
        E 719 91 4d 00
        E 1 b1 02 50
        E 0 91 4d 50
        E 719 91 4d 00
        E 1 b1 02 50
        E 0 91 4d 50
        E 239 91 4d 00
        E 241 b1 02 50
        E 0 91 4b 50
        E 239 91 4b 00
        E 1 b1 02 50
        E 0 91 4d 50
        E 239 91 4d 00
        E 241 b1 02 50
        E 0 91 4a 50
        E 239 91 4a 00
        E 1 b1 02 50
        E 0 91 48 50
        E 239 91 48 00
        E 1 b1 02 50
        E 0 91 46 50
        E 479 91 46 00
        E 241 b1 02 50
        E 0 91 46 50
        E 239 91 46 00
        E 1 b1 02 50
        E 0 91 45 50
        E 239 91 45 00
        E 1 b1 02 50
        E 0 91 46 50
        E 239 91 46 00
        E 1 b1 02 50
        E 0 91 45 50
        E 239 91 45 00
        E 1 b1 02 50
        E 0 91 43 50
        E 239 91 43 00
        E 1 b1 02 50
        E 0 91 41 50
        E 479 91 41 00
        E 1 b1 02 50
        E 0 91 43 50
        E 239 91 43 00
        E 1 b1 02 50
        E 0 91 45 50
        E 479 91 45 00
        E 1 b1 02 50
        E 0 91 41 50
        E 239 91 41 00
        E 1 b1 02 50
        E 0 91 45 50
        E 479 91 45 00
        E 1 b1 02 50
        E 0 91 48 50
        E 239 91 48 00
        <X 1 0
          /1kC/gA=
        >
        E 0 b1 02 50
        E 0 91 46 50
        E 719 91 46 00
        E 1 b1 02 50
        E 0 91 3f 50
        E 479 91 3f 00
        E 1 b1 02 50
        E 0 91 41 50
        E 239 91 41 00
        E 1 b1 02 50
        E 0 91 46 50
        E 479 91 46 00
        E 1 b1 02 50
        E 0 91 4b 50
        E 239 91 4b 00
        E 1 b1 02 50
        E 0 91 4a 50
        E 239 91 4a 00
        E 241 b1 02 50
        E 0 91 4d 50
        E 240 b1 02 50
        E 719 91 4d 00
        E 1 b1 02 50
        E 0 91 4a 50
        E 239 91 4a 00
        E 1 b1 02 50
        E 0 91 48 50
        E 239 91 48 00
        E 241 b1 02 50
        E 0 91 46 50
        E 239 91 46 00
        E 1 b1 02 50
        E 0 91 45 50
        E 239 91 45 00
        E 1 b1 02 50
        E 0 91 46 50
        E 239 91 46 00
        E 1 b1 02 50
        E 0 91 4d 50
        E 239 91 4d 00
        E 1 b1 02 50
        E 0 91 46 50
        E 239 91 46 00
        E 241 b1 02 50
        E 0 91 4d 50
        E 239 91 4d 00
        E 1 b1 02 50
        E 0 91 4d 50
        E 239 91 4d 00
        E 1 b1 02 50
        E 0 91 4d 50
        E 239 91 4d 00
        E 1 b1 02 50
        E 0 91 4d 50
        E 479 91 4d 00
        E 1 b1 02 50
        E 0 91 4a 50
        E 239 91 4a 00
        E 1 b1 02 50
        E 0 91 4d 50
        E 479 91 4d 00
        E 1 b1 02 50
        E 0 91 4b 50
        E 239 91 4b 00
        E 1 b1 02 50
        E 0 91 4a 50
        E 239 91 4a 00
        E 241 b1 02 50
        E 0 91 48 50
        E 239 91 48 00
        E 1 b1 02 50
        E 0 91 46 50
        E 719 91 46 00
        E 1 b1 02 50
        E 0 91 46 50
        E 719 91 46 00
        E 1 b1 02 50
        E 0 91 46 50
        E 239 91 46 00
        E 1 b1 02 50
        E 0 91 48 50
        E 239 91 48 00
        E 1 b1 02 50
        E 0 91 46 50
        E 239 91 46 00
        E 1 b1 02 50
        E 0 91 4d 50
        E 239 91 4d 00
        E 1 b1 02 50
        E 0 91 46 50
        E 239 91 46 00
        E 241 b1 02 50
        E 0 91 4d 50
        E 719 91 4d 00
        E 1 b1 02 50
        E 0 91 4d 50
        E 719 91 4d 00
        E 1 b1 02 50
        E 0 91 4d 50
        E 239 91 4d 00
        E 241 b1 02 50
        E 0 91 4b 50
        E 239 91 4b 00
        E 1 b1 02 50
        E 0 91 4d 50
        E 239 91 4d 00
        E 241 b1 02 50
        E 0 91 4a 50
        E 239 91 4a 00
        E 1 b1 02 50
        E 0 91 48 50
        E 239 91 48 00
        E 1 b1 02 50
        E 0 91 46 50
        E 479 91 46 00
        E 241 b1 02 50
        E 0 91 46 50
        E 239 91 46 00
        E 1 b1 02 50
        E 0 91 45 50
        E 239 91 45 00
        E 1 b1 02 50
        E 0 91 46 50
        E 239 91 46 00
        E 1 b1 02 50
        E 0 91 45 50
        E 239 91 45 00
        E 1 b1 02 50
        E 0 91 43 50
        E 239 91 43 00
        E 1 b1 02 50
        E 0 91 41 50
        E 479 91 41 00
        E 1 b1 02 50
        E 0 91 43 50
        E 239 91 43 00
        E 1 b1 02 50
        E 0 91 45 50
        E 479 91 45 00
        E 1 b1 02 50
        E 0 91 41 50
        E 239 91 41 00
        E 1 b1 02 50
        E 0 91 45 50
        E 479 91 45 00
        E 1 b1 02 50
        E 0 91 48 50
        E 239 91 48 00
        E 1 b1 02 50
        E 0 91 46 50
        E 719 91 46 00
        E 1 b1 02 50
        E 0 91 46 50
        E 479 91 46 00
        E 1 b1 02 50
        E 0 91 41 50
        E 239 91 41 00
        E 1 b1 02 50
        E 0 91 46 50
        E 479 91 46 00
        E 1 b1 02 50
        E 0 91 48 50
        E 239 91 48 00
        E 1 b1 02 50
        E 0 91 4a 50
        E 239 91 4a 00
        E 241 b1 02 50
        E 0 91 4d 50
        E 240 b1 02 50
        E 719 91 4d 00
        E 1 b1 02 50
        E 0 91 4b 50
        E 239 91 4b 00
        E 1 b1 02 50
        E 0 91 4a 50
        E 239 91 4a 00
        E 1 b1 02 50
        E 0 91 48 50
        E 239 91 48 00
        E 1 b1 02 50
        E 0 91 46 50
        E 239 91 46 00
        E 1 b1 02 50
        E 0 91 48 50
        E 239 91 48 00
        E 1 b1 02 50
        E 0 91 46 50
        E 719 91 46 00
        E 1 b1 02 50
        E 0 91 48 50
        E 239 91 48 00
        E 1 b1 02 50
        E 0 91 46 50
        E 239 91 46 00
        E 1 b1 02 50
        E 0 91 45 50
        E 239 91 45 00
        E 1 b1 02 50
        E 0 91 43 50
        E 239 91 43 00
        E 1 b1 02 50
        E 0 91 46 50
        E 239 91 46 00
        E 1 b1 02 50
        E 0 91 45 50
        E 239 91 45 00
        E 1 b1 02 50
        E 0 91 46 50
        E 239 91 46 00
        E 1 b1 02 50
        E 0 91 4a 50
        E 239 91 4a 00
        E 1 b1 02 50
        E 0 91 48 50
        E 239 91 48 00
        E 1 b1 02 50
        E 0 91 46 50
        E 239 91 46 00
        E 1 b1 02 50
        E 0 91 4a 50
        E 239 91 4a 00
        E 1 b1 02 50
        E 0 91 48 50
        E 239 91 48 00
        E 1 b1 02 50
        E 0 91 4a 50
        E 239 91 4a 00
        E 1 b1 02 50
        E 0 91 4b 50
        E 239 91 4b 00
        E 1 b1 02 50
        E 0 91 4a 50
        E 239 91 4a 00
        E 1 b1 02 50
        E 0 91 48 50
        E 239 91 48 00
        E 1 b1 02 50
        E 0 91 4b 50
        E 239 91 4b 00
        E 1 b1 02 50
        E 0 91 4a 50
        E 239 91 4a 00
        E 1 b1 02 50
        E 0 91 4b 50
        E 239 91 4b 00
        E 1 b1 02 50
        E 0 91 4d 50
        E 239 91 4d 00
        E 1 b1 02 50
        E 0 91 4b 50
        E 239 91 4b 00
        E 1 b1 02 50
        E 0 91 4a 50
        E 239 91 4a 00
        E 1 b1 02 50
        E 0 91 48 50
        E 239 91 48 00
        E 1 b1 02 50
        E 0 91 46 50
        E 239 91 46 00
        E 1 b1 02 50
        E 0 91 45 50
        E 239 91 45 00
        E 1 b1 02 50
        E 0 91 46 50
        E 239 91 46 00
        E 1 b1 02 50
        E 0 91 45 50
        E 239 91 45 00
        E 1 b1 02 50
        E 0 91 43 50
        E 239 91 43 00
        E 1 b1 02 50
        E 0 91 46 50
        E 239 91 46 00
        E 1 b1 02 50
        E 0 91 45 50
        E 239 91 45 00
        E 1 b1 02 50
        E 0 91 46 50
        E 239 91 46 00
        E 1 b1 02 50
        E 0 91 4a 50
        E 239 91 4a 00
        E 1 b1 02 50
        E 0 91 48 50
        E 239 91 48 00
        E 1 b1 02 50
        E 0 91 46 50
        E 239 91 46 00
        E 1 b1 02 50
        E 0 91 4a 50
        E 239 91 4a 00
        E 1 b1 02 50
        E 0 91 48 50
        E 239 91 48 00
        E 1 b1 02 50
        E 0 91 4a 50
        E 239 91 4a 00
        E 1 b1 02 50
        E 0 91 4b 50
        E 239 91 4b 00
        E 1 b1 02 50
        E 0 91 4a 50
        E 239 91 4a 00
        E 1 b1 02 50
        E 0 91 48 50
        E 239 91 48 00
        E 1 b1 02 50
        E 0 91 4b 50
        E 239 91 4b 00
        E 1 b1 02 50
        E 0 91 4a 50
        E 239 91 4a 00
        E 1 b1 02 50
        E 0 91 4b 50
        E 239 91 4b 00
        E 1 b1 02 50
        E 0 91 4d 50
        E 239 91 4d 00
        E 1 b1 02 50
        E 0 91 4b 50
        E 239 91 4b 00
        E 1 b1 02 50
        E 0 91 4a 50
        E 239 91 4a 00
        E 1 b1 02 50
        E 0 91 48 50
        E 239 91 48 00
        E 1 b1 02 50
        E 0 91 46 50
        E 239 91 46 00
        E 1 b1 02 50
        E 0 91 45 50
        E 239 91 45 00
        E 1 b1 02 50
        E 0 91 4d 50
        E 1440 b1 02 50
        E 239 91 4d 00
        E 1 b1 02 50
        E 0 91 4f 50
        E 239 91 4f 00
        E 1 b1 02 50
        E 0 91 4d 50
        E 239 91 4d 00
        E 1 b1 02 50
        E 0 91 4b 50
        E 239 91 4b 00
        E 1 b1 02 50
        E 0 91 4a 50
        E 239 91 4a 00
        E 1 b1 02 50
        E 0 91 48 50
        E 239 91 48 00
        E 1 b1 02 50
        E 0 91 4a 50
        E 239 91 4a 00
        E 1 b1 02 50
        E 0 91 4d 50
        E 239 91 4d 00
        E 1 b1 02 50
        E 0 91 48 50
        E 239 91 48 00
        E 1 b1 02 50
        E 0 91 46 50
        E 719 91 46 00
        E 1 b1 02 50
        E 0 91 43 50
        E 239 91 43 00
        E 1 b1 02 50
        E 0 91 46 50
        E 239 91 46 00
        E 1 b1 02 50
        E 0 91 41 50
        E 239 91 41 00
        E 1 b1 02 50
        E 0 91 3f 50
        E 719 91 3f 00
        E 1 b1 02 50
        E 0 91 3e 50
        E 239 91 3e 00
        E 1 b1 02 50
        E 0 91 41 50
        E 239 91 41 00
        E 1 b1 02 50
        E 0 91 3c 50
        E 239 91 3c 00
        E 1 b1 02 50
        E 0 91 3a 50
        E 719 91 3a 00
        E 1 b1 02 50
        E 0 91 3a 50
        E 239 91 3a 00
        E 1 b1 02 50
        E 0 91 3a 50
        E 239 91 3a 00
        E 1 b1 02 50
        E 0 91 3a 50
        E 239 91 3a 00
        E 1 b1 02 50
        E 0 91 3a 50
        E 719 91 3a 00
        E 1441 b1 02 50
        E 0 91 3a 50
        E 239 91 3a 00
        E 1 b1 02 50
        E 0 91 39 50
        E 239 91 39 00
        E 1 b1 02 50
        E 0 91 3a 50
        E 239 91 3a 00
        E 1 b1 02 50
        E 0 91 41 50
        E 719 91 41 00
        E 1 b1 02 50
        E 0 91 3a 50
        E 239 91 3a 00
        E 1 b1 02 50
        E 0 91 39 50
        E 239 91 39 00
        E 1 b1 02 50
        E 0 91 3a 50
        E 239 91 3a 00
        E 1 b1 02 50
        E 0 91 41 50
        E 719 91 41 00
        E 1 b1 02 50
        E 0 91 3a 50
        E 239 91 3a 00
        E 1 b1 02 50
        E 0 91 39 50
        E 239 91 39 00
        E 1 b1 02 50
        E 0 91 3a 50
        E 239 91 3a 00
        E 1 b1 02 50
        E 0 91 43 50
        E 719 91 43 00
        E 1 b1 02 50
        E 0 91 3a 50
        E 239 91 3a 00
        E 1 b1 02 50
        E 0 91 39 50
        E 239 91 39 00
        E 1 b1 02 50
        E 0 91 3a 50
        E 239 91 3a 00
        E 1 b1 02 50
        E 0 91 43 50
        E 719 91 43 00
        E 1 b1 02 50
        E 0 91 3a 50
        E 239 91 3a 00
        E 1 b1 02 50
        E 0 91 39 50
        E 239 91 39 00
        E 1 b1 02 50
        E 0 91 3a 50
        E 239 91 3a 00
        E 1 b1 02 50
        E 0 91 45 50
        E 719 91 45 00
        E 1 b1 02 50
        E 0 91 3a 50
        E 239 91 3a 00
        E 1 b1 02 50
        E 0 91 39 50
        E 239 91 39 00
        E 1 b1 02 50
        E 0 91 3a 50
        E 239 91 3a 00
        E 1 b1 02 50
        E 0 91 45 50
        E 719 91 45 00
        E 1 b1 02 50
        E 0 91 46 50
        E 479 91 46 00
        E 1 b1 02 50
        E 0 91 45 50
        E 479 91 45 00
        E 1 b1 02 50
        E 0 91 43 50
        E 479 91 43 00
        E 1 b1 02 50
        E 0 91 3e 50
        E 479 91 3e 00
        E 1 b1 02 50
        E 0 91 3c 50
        E 479 91 3c 00
        E 1 b1 02 50
        E 0 91 3a 50
        E 479 91 3a 00
        E 1 b1 02 50
        E 0 91 3a 50
        E 239 91 3a 00
        E 1 b1 02 50
        E 0 91 3a 50
        E 239 91 3a 00
        E 1 b1 02 50
        E 0 91 3a 50
        E 239 91 3a 00
        E 1 b1 02 50
        E 0 91 3a 50
        E 239 91 3a 00
        E 1 b1 02 50
        E 0 91 3a 50
        E 239 91 3a 00
        E 1 b1 02 50
        E 0 91 3a 50
        E 239 91 3a 00
        E 1 b1 02 50
        E 0 91 3a 50
        E 239 91 3a 00
        E 1 b1 02 50
        E 0 91 3c 50
        E 239 91 3c 00
        E 1 b1 02 50
        E 0 91 3e 50
        E 239 91 3e 00
        E 1 b1 02 50
        E 0 91 3f 50
        E 239 91 3f 00
        E 1 b1 02 50
        E 0 91 41 50
        E 239 91 41 00
        E 1 b1 02 50
        E 0 91 43 50
        E 239 91 43 00
        E 1 b1 02 50
        E 0 91 46 50
        E 719 91 46 00
        E 1 b1 02 50
        E 0 91 3f 50
        E 479 91 3f 00
        E 1 b1 02 50
        E 0 91 41 50
        E 239 91 41 00
        E 1 b1 02 50
        E 0 91 46 50
        E 479 91 46 00
        E 1 b1 02 50
        E 0 91 4b 50
        E 239 91 4b 00
        E 1 b1 02 50
        E 0 91 4a 50
        E 239 91 4a 00
        E 241 b1 02 50
        E 0 91 4d 50
        E 240 b1 02 50
        E 719 91 4d 00
        E 1 b1 02 50
        E 0 91 4a 50
        E 239 91 4a 00
        E 1 b1 02 50
        E 0 91 48 50
        E 239 91 48 00
        E 241 b1 02 50
        E 0 91 46 50
        E 239 91 46 00
        E 1 b1 02 50
        E 0 91 45 50
        E 239 91 45 00
        E 1 b1 02 50
        E 0 91 46 50
        E 239 91 46 00
        E 1 b1 02 50
        E 0 91 4d 50
        E 239 91 4d 00
        E 1 b1 02 50
        E 0 91 46 50
        E 239 91 46 00
        E 241 b1 02 50
        E 0 91 4d 50
        E 239 91 4d 00
        E 1 b1 02 50
        E 0 91 4d 50
        E 239 91 4d 00
        E 1 b1 02 50
        E 0 91 4d 50
        E 239 91 4d 00
        E 1 b1 02 50
        E 0 91 4d 50
        E 479 91 4d 00
        E 1 b1 02 50
        E 0 91 4a 50
        E 239 91 4a 00
        E 1 b1 02 50
        E 0 91 4d 50
        E 479 91 4d 00
        E 1 b1 02 50
        E 0 91 4b 50
        E 239 91 4b 00
        E 1 b1 02 50
        E 0 91 4a 50
        E 239 91 4a 00
        E 241 b1 02 50
        E 0 91 48 50
        E 239 91 48 00
        E 1 b1 02 50
        E 0 91 46 50
        E 719 91 46 00
        E 1 b1 02 50
        E 0 91 46 50
        E 719 91 46 00
        E 1 b1 02 50
        E 0 91 46 50
        E 239 91 46 00
        E 1 b1 02 50
        E 0 91 48 50
        E 239 91 48 00
        E 1 b1 02 50
        E 0 91 46 50
        E 239 91 46 00
        E 1 b1 02 50
        E 0 91 4d 50
        E 239 91 4d 00
        E 1 b1 02 50
        E 0 91 46 50
        E 239 91 46 00
        E 241 b1 02 50
        E 0 91 4d 50
        E 719 91 4d 00
        E 1 b1 02 50
        E 0 91 4d 50
        E 719 91 4d 00
        E 1 b1 02 50
        E 0 91 4d 50
        E 239 91 4d 00
        E 241 b1 02 50
        E 0 91 4b 50
        E 239 91 4b 00
        E 1 b1 02 50
        E 0 91 4d 50
        E 239 91 4d 00
        E 241 b1 02 50
        E 0 91 4a 50
        E 239 91 4a 00
        E 1 b1 02 50
        E 0 91 48 50
        E 239 91 48 00
        E 1 b1 02 50
        E 0 91 46 50
        E 479 91 46 00
        E 241 b1 02 50
        E 0 91 46 50
        E 239 91 46 00
        E 1 b1 02 50
        E 0 91 45 50
        E 239 91 45 00
        E 1 b1 02 50
        E 0 91 46 50
        E 239 91 46 00
        E 1 b1 02 50
        E 0 91 45 50
        E 239 91 45 00
        E 1 b1 02 50
        E 0 91 43 50
        E 239 91 43 00
        E 1 b1 02 50
        E 0 91 41 50
        E 479 91 41 00
        E 1 b1 02 50
        E 0 91 43 50
        E 239 91 43 00
        E 1 b1 02 50
        E 0 91 45 50
        E 479 91 45 00
        E 1 b1 02 50
        E 0 91 41 50
        E 239 91 41 00
        E 1 b1 02 50
        E 0 91 45 50
        E 479 91 45 00
        E 1 b1 02 50
        E 0 91 48 50
        E 239 91 48 00
        E 1 b1 02 50
        E 0 91 46 50
        E 719 91 46 00
        E 1 b1 02 50
        E 0 91 46 50
        E 479 91 46 00
        E 1 b1 02 50
        E 0 91 41 50
        E 239 91 41 00
        E 1 b1 02 50
        E 0 91 46 50
        E 479 91 46 00
        E 1 b1 02 50
        E 0 91 48 50
        E 239 91 48 00
        E 1 b1 02 50
        E 0 91 4a 50
        E 239 91 4a 00
        E 241 b1 02 50
        E 0 91 4d 50
        E 240 b1 02 50
        E 719 91 4d 00
        E 1 b1 02 50
        E 0 91 4b 50
        E 239 91 4b 00
        E 1 b1 02 50
        E 0 91 4a 50
        E 239 91 4a 00
        E 1 b1 02 50
        E 0 91 48 50
        E 239 91 48 00
        E 1 b1 02 50
        E 0 91 46 50
        E 239 91 46 00
        E 1 b1 02 50
        E 0 91 45 50
        E 239 91 45 00
        E 1 b1 02 50
        E 0 91 43 50
        E 239 91 43 00
        E 1 b1 02 50
        E 0 91 46 50
        E 719 91 46 00
        E 1 b1 02 50
        E 0 91 46 50
        E 719 91 46 00
        E 1 b1 02 50
        E 0 91 3f 50
        E 479 91 3f 00
        E 1 b1 02 50
        E 0 91 41 50
        E 239 91 41 00
        E 1 b1 02 50
        E 0 91 46 50
        E 479 91 46 00
        E 1 b1 02 50
        E 0 91 4b 50
        E 239 91 4b 00
        E 1 b1 02 50
        E 0 91 4a 50
        E 239 91 4a 00
        E 241 b1 02 50
        E 0 91 4d 50
        E 240 b1 02 50
        E 719 91 4d 00
        E 1 b1 02 50
        E 0 91 4a 50
        E 239 91 4a 00
        E 1 b1 02 50
        E 0 91 48 50
        E 239 91 48 00
        E 241 b1 02 50
        E 0 91 46 50
        E 239 91 46 00
        E 1 b1 02 50
        E 0 91 45 50
        E 239 91 45 00
        E 1 b1 02 50
        E 0 91 46 50
        E 239 91 46 00
        E 1 b1 02 50
        E 0 91 4d 50
        E 239 91 4d 00
        E 1 b1 02 50
        E 0 91 46 50
        E 239 91 46 00
        E 241 b1 02 50
        E 0 91 4d 50
        E 239 91 4d 00
        E 1 b1 02 50
        E 0 91 4d 50
        E 239 91 4d 00
        E 1 b1 02 50
        E 0 91 4d 50
        E 239 91 4d 00
        E 1 b1 02 50
        E 0 91 4d 50
        E 479 91 4d 00
        E 1 b1 02 50
        E 0 91 4a 50
        E 239 91 4a 00
        E 1 b1 02 50
        E 0 91 4d 50
        E 479 91 4d 00
        E 1 b1 02 50
        E 0 91 4b 50
        E 239 91 4b 00
        E 1 b1 02 50
        E 0 91 4a 50
        E 239 91 4a 00
        E 241 b1 02 50
        E 0 91 48 50
        E 239 91 48 00
        E 1 b1 02 50
        E 0 91 46 50
        E 719 91 46 00
        E 1 b1 02 50
        E 0 91 46 50
        E 719 91 46 00
        E 1 b1 02 50
        E 0 91 46 50
        E 239 91 46 00
        E 1 b1 02 50
        E 0 91 48 50
        E 239 91 48 00
        E 1 b1 02 50
        E 0 91 46 50
        E 239 91 46 00
        E 1 b1 02 50
        E 0 91 4d 50
        E 239 91 4d 00
        E 1 b1 02 50
        E 0 91 46 50
        E 239 91 46 00
        E 241 b1 02 50
        E 0 91 4d 50
        E 719 91 4d 00
        E 1 b1 02 50
        E 0 91 4d 50
        E 719 91 4d 00
        E 1 b1 02 50
        E 0 91 4d 50
        E 239 91 4d 00
        E 241 b1 02 50
        E 0 91 4b 50
        E 239 91 4b 00
        E 1 b1 02 50
        E 0 91 4d 50
        E 239 91 4d 00
        E 241 b1 02 50
        E 0 91 4a 50
        E 239 91 4a 00
        E 1 b1 02 50
        E 0 91 48 50
        E 239 91 48 00
        E 1 b1 02 50
        E 0 91 46 50
        E 479 91 46 00
        E 241 b1 02 50
        E 0 91 46 50
        E 239 91 46 00
        E 1 b1 02 50
        E 0 91 45 50
        E 239 91 45 00
        E 1 b1 02 50
        E 0 91 46 50
        E 239 91 46 00
        E 1 b1 02 50
        E 0 91 45 50
        E 239 91 45 00
        E 1 b1 02 50
        E 0 91 43 50
        E 239 91 43 00
        E 1 b1 02 50
        E 0 91 41 50
        E 479 91 41 00
        E 1 b1 02 50
        E 0 91 43 50
        E 239 91 43 00
        E 1 b1 02 50
        E 0 91 45 50
        E 479 91 45 00
        E 1 b1 02 50
        E 0 91 41 50
        E 239 91 41 00
        E 1 b1 02 50
        E 0 91 45 50
        E 479 91 45 00
        E 1 b1 02 50
        E 0 91 48 50
        E 239 91 48 00
        E 1 b1 02 50
        E 0 91 46 50
        E 719 91 46 00
        E 1 b1 02 50
        E 0 91 3f 50
        E 479 91 3f 00
        E 1 b1 02 50
        E 0 91 41 50
        E 239 91 41 00
        E 1 b1 02 50
        E 0 91 46 50
        E 479 91 46 00
        E 1 b1 02 50
        E 0 91 4b 50
        E 239 91 4b 00
        E 1 b1 02 50
        E 0 91 4a 50
        E 239 91 4a 00
        E 241 b1 02 50
        E 0 91 4d 50
        E 240 b1 02 50
        E 719 91 4d 00
        E 1 b1 02 50
        E 0 91 4a 50
        E 239 91 4a 00
        E 1 b1 02 50
        E 0 91 48 50
        E 239 91 48 00
        E 241 b1 02 50
        E 0 91 46 50
        E 239 91 46 00
        E 1 b1 02 50
        E 0 91 45 50
        E 239 91 45 00
        E 1 b1 02 50
        E 0 91 46 50
        E 239 91 46 00
        E 1 b1 02 50
        E 0 91 4d 50
        E 239 91 4d 00
        E 1 b1 02 50
        E 0 91 46 50
        E 239 91 46 00
        E 241 b1 02 50
        E 0 91 4d 50
        E 239 91 4d 00
        E 1 b1 02 50
        E 0 91 4d 50
        E 239 91 4d 00
        E 1 b1 02 50
        E 0 91 4d 50
        E 239 91 4d 00
        E 1 b1 02 50
        E 0 91 4d 50
        E 479 91 4d 00
        E 1 b1 02 50
        E 0 91 4a 50
        E 239 91 4a 00
        E 1 b1 02 50
        E 0 91 4d 50
        E 479 91 4d 00
        E 1 b1 02 50
        E 0 91 4b 50
        E 239 91 4b 00
        E 1 b1 02 50
        E 0 91 4a 50
        E 239 91 4a 00
        E 241 b1 02 50
        E 0 91 48 50
        E 239 91 48 00
        E 1 b1 02 50
        E 0 91 46 50
        E 719 91 46 00
        E 1 b1 02 50
        E 0 91 46 50
        E 719 91 46 00
        E 1 b1 02 50
        E 0 91 46 50
        E 239 91 46 00
        E 1 b1 02 50
        E 0 91 48 50
        E 239 91 48 00
        E 1 b1 02 50
        E 0 91 46 50
        E 239 91 46 00
        E 1 b1 02 50
        E 0 91 4d 50
        E 239 91 4d 00
        E 1 b1 02 50
        E 0 91 46 50
        E 239 91 46 00
        E 241 b1 02 50
        E 0 91 4d 50
        E 719 91 4d 00
        E 1 b1 02 50
        E 0 91 4d 50
        E 719 91 4d 00
        E 1 b1 02 50
        E 0 91 4d 50
        E 239 91 4d 00
        E 241 b1 02 50
        E 0 91 4b 50
        E 239 91 4b 00
        E 1 b1 02 50
        E 0 91 4d 50
        E 239 91 4d 00
        E 241 b1 02 50
        E 0 91 4a 50
        E 239 91 4a 00
        E 1 b1 02 50
        E 0 91 48 50
        E 239 91 48 00
        E 1 b1 02 50
        E 0 91 46 50
        E 479 91 46 00
        E 241 b1 02 50
        E 0 91 46 50
        E 239 91 46 00
        E 1 b1 02 50
        E 0 91 45 50
        E 239 91 45 00
        E 1 b1 02 50
        E 0 91 46 50
        E 239 91 46 00
        E 1 b1 02 50
        E 0 91 45 50
        E 239 91 45 00
        E 1 b1 02 50
        E 0 91 43 50
        E 239 91 43 00
        E 1 b1 02 50
        E 0 91 41 50
        E 479 91 41 00
        E 1 b1 02 50
        E 0 91 43 50
        E 239 91 43 00
        E 1 b1 02 50
        E 0 91 45 50
        E 479 91 45 00
        E 1 b1 02 50
        E 0 91 41 50
        E 239 91 41 00
        E 1 b1 02 50
        E 0 91 45 50
        E 479 91 45 00
        E 1 b1 02 50
        E 0 91 48 50
        E 239 91 48 00
        E 1 b1 02 50
        E 0 91 46 50
        E 719 91 46 00
        E 1 b1 02 50
        E 0 91 46 50
        E 479 91 46 00
        E 1 b1 02 50
        E 0 91 41 50
        E 239 91 41 00
        E 1 b1 02 50
        E 0 91 46 50
        E 479 91 46 00
        E 1 b1 02 50
        E 0 91 48 50
        E 239 91 48 00
        E 1 b1 02 50
        E 0 91 4a 50
        E 239 91 4a 00
        E 241 b1 02 50
        E 0 91 4d 50
        E 240 b1 02 50
        E 719 91 4d 00
        E 1 b1 02 50
        E 0 91 4b 50
        E 239 91 4b 00
        E 1 b1 02 50
        E 0 91 4a 50
        E 239 91 4a 00
        E 1 b1 02 50
        E 0 91 48 50
        E 239 91 48 00
        E 1 b1 02 50
        E 0 91 46 50
        E 239 91 46 00
        E 1 b1 02 50
        E 0 91 48 50
        E 239 91 48 00
        E 1 b1 02 50
        E 0 91 46 50
        E 719 91 46 00
        E 1 b1 02 50
        E 0 91 48 50
        E 239 91 48 00
        E 1 b1 02 50
        E 0 91 46 50
        E 239 91 46 00
        E 1 b1 02 50
        E 0 91 45 50
        E 239 91 45 00
        E 1 b1 02 50
        E 0 91 43 50
        E 239 91 43 00
        E 1 b1 02 50
        E 0 91 46 50
        E 239 91 46 00
        E 1 b1 02 50
        E 0 91 45 50
        E 239 91 45 00
        E 1 b1 02 50
        E 0 91 46 50
        E 239 91 46 00
        E 1 b1 02 50
        E 0 91 4a 50
        E 239 91 4a 00
        E 1 b1 02 50
        E 0 91 48 50
        E 239 91 48 00
        E 1 b1 02 50
        E 0 91 46 50
        E 239 91 46 00
        E 1 b1 02 50
        E 0 91 4a 50
        E 239 91 4a 00
        E 1 b1 02 50
        E 0 91 48 50
        E 239 91 48 00
        E 1 b1 02 50
        E 0 91 4a 50
        E 239 91 4a 00
        E 1 b1 02 50
        E 0 91 4b 50
        E 239 91 4b 00
        E 1 b1 02 50
        E 0 91 4a 50
        E 239 91 4a 00
        E 1 b1 02 50
        E 0 91 48 50
        E 239 91 48 00
        E 1 b1 02 50
        E 0 91 4b 50
        E 239 91 4b 00
        E 1 b1 02 50
        E 0 91 4a 50
        E 239 91 4a 00
        E 1 b1 02 50
        E 0 91 4b 50
        E 239 91 4b 00
        E 1 b1 02 50
        E 0 91 4d 50
        E 239 91 4d 00
        E 1 b1 02 50
        E 0 91 4b 50
        E 239 91 4b 00
        E 1 b1 02 50
        E 0 91 4a 50
        E 239 91 4a 00
        E 1 b1 02 50
        E 0 91 48 50
        E 239 91 48 00
        E 1 b1 02 50
        E 0 91 46 50
        E 239 91 46 00
        E 1 b1 02 50
        E 0 91 45 50
        E 239 91 45 00
        E 1 b1 02 50
        E 0 91 46 50
        E 239 91 46 00
        E 1 b1 02 50
        E 0 91 45 50
        E 239 91 45 00
        E 1 b1 02 50
        E 0 91 43 50
        E 239 91 43 00
        E 1 b1 02 50
        E 0 91 46 50
        E 239 91 46 00
        E 1 b1 02 50
        E 0 91 45 50
        E 239 91 45 00
        E 1 b1 02 50
        E 0 91 46 50
        E 239 91 46 00
        E 1 b1 02 50
        E 0 91 4a 50
        E 239 91 4a 00
        E 1 b1 02 50
        E 0 91 48 50
        E 239 91 48 00
        E 1 b1 02 50
        E 0 91 46 50
        E 239 91 46 00
        E 1 b1 02 50
        E 0 91 4a 50
        E 239 91 4a 00
        E 1 b1 02 50
        E 0 91 48 50
        E 239 91 48 00
        E 1 b1 02 50
        E 0 91 4a 50
        E 239 91 4a 00
        E 1 b1 02 50
        E 0 91 4b 50
        E 239 91 4b 00
        E 1 b1 02 50
        E 0 91 4a 50
        E 239 91 4a 00
        E 1 b1 02 50
        E 0 91 48 50
        E 239 91 48 00
        E 1 b1 02 50
        E 0 91 4b 50
        E 239 91 4b 00
        E 1 b1 02 50
        E 0 91 4a 50
        E 239 91 4a 00
        E 1 b1 02 50
        E 0 91 4b 50
        E 239 91 4b 00
        E 1 b1 02 50
        E 0 91 4d 50
        E 239 91 4d 00
        E 1 b1 02 50
        E 0 91 4b 50
        E 239 91 4b 00
        E 1 b1 02 50
        E 0 91 4a 50
        E 239 91 4a 00
        E 1 b1 02 50
        E 0 91 48 50
        E 239 91 48 00
        E 1 b1 02 50
        E 0 91 46 50
        E 239 91 46 00
        E 1 b1 02 50
        E 0 91 45 50
        E 239 91 45 00
        E 1 b1 02 50
        E 0 91 4d 50
        E 1440 b1 02 50
        E 239 91 4d 00
        E 1 b1 02 50
        E 0 91 4f 50
        E 239 91 4f 00
        E 1 b1 02 50
        E 0 91 4d 50
        E 239 91 4d 00
        E 1 b1 02 50
        E 0 91 4b 50
        E 239 91 4b 00
        E 1 b1 02 50
        E 0 91 4a 50
        E 239 91 4a 00
        E 1 b1 02 50
        E 0 91 48 50
        E 239 91 48 00
        E 1 b1 02 50
        E 0 91 4a 50
        E 239 91 4a 00
        E 1 b1 02 50
        E 0 91 4d 50
        E 239 91 4d 00
        E 1 b1 02 50
        E 0 91 48 50
        E 239 91 48 00
        E 1 b1 02 50
        E 0 91 46 50
        E 719 91 46 00
        E 1 b1 02 50
        E 0 91 43 50
        E 239 91 43 00
        E 1 b1 02 50
        E 0 91 46 50
        E 239 91 46 00
        E 1 b1 02 50
        E 0 91 41 50
        E 239 91 41 00
        E 1 b1 02 50
        E 0 91 3f 50
        E 719 91 3f 00
        E 1 b1 02 50
        E 0 91 3e 50
        E 239 91 3e 00
        E 1 b1 02 50
        E 0 91 41 50
        E 239 91 41 00
        E 1 b1 02 50
        E 0 91 3c 50
        E 239 91 3c 00
        E 1 b1 02 50
        E 0 91 3a 50
        E 719 91 3a 00
        E 1 b1 02 50
        E 0 91 3a 50
        E 239 91 3a 00
        E 1 b1 02 50
        E 0 91 3a 50
        E 239 91 3a 00
        E 1 b1 02 50
        E 0 91 3a 50
        E 239 91 3a 00
        E 1 b1 02 50
        E 0 91 3a 50
        E 719 91 3a 00
        E 1441 b1 02 50
        E 0 91 3a 50
        E 239 91 3a 00
        E 1 b1 02 50
        E 0 91 39 50
        E 239 91 39 00
        E 1 b1 02 50
        E 0 91 3a 50
        E 239 91 3a 00
        E 1 b1 02 50
        E 0 91 41 50
        E 719 91 41 00
        E 1 b1 02 50
        E 0 91 3a 50
        E 239 91 3a 00
        E 1 b1 02 50
        E 0 91 39 50
        E 239 91 39 00
        E 1 b1 02 50
        E 0 91 3a 50
        E 239 91 3a 00
        E 1 b1 02 50
        E 0 91 41 50
        E 719 91 41 00
        E 1 b1 02 50
        E 0 91 3a 50
        E 239 91 3a 00
        E 1 b1 02 50
        E 0 91 39 50
        E 239 91 39 00
        E 1 b1 02 50
        E 0 91 3a 50
        E 239 91 3a 00
        E 1 b1 02 50
        E 0 91 43 50
        E 719 91 43 00
        E 1 b1 02 50
        E 0 91 3a 50
        E 239 91 3a 00
        E 1 b1 02 50
        E 0 91 39 50
        E 239 91 39 00
        E 1 b1 02 50
        E 0 91 3a 50
        E 239 91 3a 00
        E 1 b1 02 50
        E 0 91 43 50
        E 719 91 43 00
        E 1 b1 02 50
        E 0 91 3a 50
        E 239 91 3a 00
        E 1 b1 02 50
        E 0 91 39 50
        E 239 91 39 00
        E 1 b1 02 50
        E 0 91 3a 50
        E 239 91 3a 00
        E 1 b1 02 50
        E 0 91 45 50
        E 719 91 45 00
        E 1 b1 02 50
        E 0 91 3a 50
        E 239 91 3a 00
        E 1 b1 02 50
        E 0 91 39 50
        E 239 91 39 00
        E 1 b1 02 50
        E 0 91 3a 50
        E 239 91 3a 00
        E 1 b1 02 50
        E 0 91 45 50
        E 719 91 45 00
        E 1 b1 02 50
        E 0 91 46 50
        E 479 91 46 00
        E 1 b1 02 50
        E 0 91 45 50
        E 479 91 45 00
        E 1 b1 02 50
        E 0 91 43 50
        E 479 91 43 00
        E 1 b1 02 50
        E 0 91 3e 50
        E 479 91 3e 00
        E 1 b1 02 50
        E 0 91 3c 50
        E 479 91 3c 00
        E 1 b1 02 50
        E 0 91 3a 50
        E 479 91 3a 00
        E 1 b1 02 50
        E 0 91 3a 50
        E 239 91 3a 00
        E 1 b1 02 50
        E 0 91 3a 50
        E 239 91 3a 00
        E 1 b1 02 50
        E 0 91 3a 50
        E 239 91 3a 00
        E 1 b1 02 50
        E 0 91 3a 50
        E 239 91 3a 00
        E 1 b1 02 50
        E 0 91 3a 50
        E 239 91 3a 00
        E 1 b1 02 50
        E 0 91 3a 50
        E 239 91 3a 00
        E 1 b1 02 50
        E 0 91 3a 50
        E 239 91 3a 00
        E 1 b1 02 50
        E 0 91 3c 50
        E 239 91 3c 00
        E 1 b1 02 50
        E 0 91 3e 50
        E 239 91 3e 00
        E 1 b1 02 50
        E 0 91 3f 50
        E 239 91 3f 00
        E 1 b1 02 50
        E 0 91 41 50
        E 239 91 41 00
        E 1 b1 02 50
        E 0 91 43 50
        E 239 91 43 00
        E 1 b1 02 50
        E 0 91 46 50
        E 719 91 46 00
        E 1 b1 02 50
        E 0 91 3f 50
        E 479 91 3f 00
        E 1 b1 02 50
        E 0 91 41 50
        E 239 91 41 00
        E 1 b1 02 50
        E 0 91 46 50
        E 479 91 46 00
        E 1 b1 02 50
        E 0 91 4b 50
        E 239 91 4b 00
        E 1 b1 02 50
        E 0 91 4a 50
        E 239 91 4a 00
        E 241 b1 02 50
        E 0 91 4d 50
        E 240 b1 02 50
        E 719 91 4d 00
        E 1 b1 02 50
        E 0 91 4a 50
        E 239 91 4a 00
        E 1 b1 02 50
        E 0 91 48 50
        E 239 91 48 00
        E 241 b1 02 50
        E 0 91 46 50
        E 239 91 46 00
        E 1 b1 02 50
        E 0 91 45 50
        E 239 91 45 00
        E 1 b1 02 50
        E 0 91 46 50
        E 239 91 46 00
        E 1 b1 02 50
        E 0 91 4d 50
        E 239 91 4d 00
        E 1 b1 02 50
        E 0 91 46 50
        E 239 91 46 00
        E 241 b1 02 50
        E 0 91 4d 50
        E 239 91 4d 00
        E 1 b1 02 50
        E 0 91 4d 50
        E 239 91 4d 00
        E 1 b1 02 50
        E 0 91 4d 50
        E 239 91 4d 00
        E 1 b1 02 50
        E 0 91 4d 50
        E 479 91 4d 00
        E 1 b1 02 50
        E 0 91 4a 50
        E 239 91 4a 00
        E 1 b1 02 50
        E 0 91 4d 50
        E 479 91 4d 00
        E 1 b1 02 50
        E 0 91 4b 50
        E 239 91 4b 00
        E 1 b1 02 50
        E 0 91 4a 50
        E 239 91 4a 00
        E 241 b1 02 50
        E 0 91 48 50
        E 239 91 48 00
        E 1 b1 02 50
        E 0 91 46 50
        E 719 91 46 00
        E 1 b1 02 50
        E 0 91 46 50
        E 719 91 46 00
        E 1 b1 02 50
        E 0 91 46 50
        E 239 91 46 00
        E 1 b1 02 50
        E 0 91 48 50
        E 239 91 48 00
        E 1 b1 02 50
        E 0 91 46 50
        E 239 91 46 00
        E 1 b1 02 50
        E 0 91 4d 50
        E 239 91 4d 00
        E 1 b1 02 50
        E 0 91 46 50
        E 239 91 46 00
        E 241 b1 02 50
        E 0 91 4d 50
        E 719 91 4d 00
        E 1 b1 02 50
        E 0 91 4d 50
        E 719 91 4d 00
        E 1 b1 02 50
        E 0 91 4d 50
        E 239 91 4d 00
        E 241 b1 02 50
        E 0 91 4b 50
        E 239 91 4b 00
        E 1 b1 02 50
        E 0 91 4d 50
        E 239 91 4d 00
        E 241 b1 02 50
        E 0 91 4a 50
        E 239 91 4a 00
        E 1 b1 02 50
        E 0 91 48 50
        E 239 91 48 00
        E 1 b1 02 50
        E 0 91 46 50
        E 479 91 46 00
        E 241 b1 02 50
        E 0 91 46 50
        E 239 91 46 00
        E 1 b1 02 50
        E 0 91 45 50
        E 239 91 45 00
        E 1 b1 02 50
        E 0 91 46 50
        E 239 91 46 00
        E 1 b1 02 50
        E 0 91 45 50
        E 239 91 45 00
        E 1 b1 02 50
        E 0 91 43 50
        E 239 91 43 00
        E 1 b1 02 50
        E 0 91 41 50
        E 479 91 41 00
        E 1 b1 02 50
        E 0 91 43 50
        E 239 91 43 00
        E 1 b1 02 50
        E 0 91 45 50
        E 479 91 45 00
        E 1 b1 02 50
        E 0 91 41 50
        E 239 91 41 00
        E 1 b1 02 50
        E 0 91 45 50
        E 479 91 45 00
        E 1 b1 02 50
        E 0 91 48 50
        E 239 91 48 00
        E 1 b1 02 50
        E 0 91 46 50
        E 719 91 46 00
        E 1 b1 02 50
        E 0 91 46 50
        E 479 91 46 00
        E 1 b1 02 50
        E 0 91 41 50
        E 239 91 41 00
        E 1 b1 02 50
        E 0 91 46 50
        E 479 91 46 00
        E 1 b1 02 50
        E 0 91 48 50
        E 239 91 48 00
        E 1 b1 02 50
        E 0 91 4a 50
        E 239 91 4a 00
        E 241 b1 02 50
        E 0 91 4d 50
        E 240 b1 02 50
        E 719 91 4d 00
        E 1 b1 02 50
        E 0 91 4b 50
        E 239 91 4b 00
        E 1 b1 02 50
        E 0 91 4a 50
        E 239 91 4a 00
        E 1 b1 02 50
        E 0 91 48 50
        E 239 91 48 00
        E 1 b1 02 50
        E 0 91 46 50
        E 239 91 46 00
        E 1 b1 02 50
        E 0 91 45 50
        E 239 91 45 00
        E 1 b1 02 50
        E 0 91 43 50
        E 239 91 43 00
        E 1 b1 02 50
        E 0 91 46 50
        E 719 91 46 00
        E 1 b0 7b 00
        CCINTERP 32
        CHASE_CC_TAKEOFFS 1
        GUID {7391CE48-7970-4469-AA61-83EDDB3CF4E9}
        IGNTEMPO 0 120 4 4
        SRCCOLOR 22
      >
    >
  >
>
